<svg width="503" height="152" viewBox="0 0 503 152" fill="none" xmlns="http://www.w3.org/2000/svg">
    <path d="M87.0216 64.056V10.008H95.4696V1.752H124.654V10.008H133.198V39.384H124.654V47.64H99.2136V64.056H87.0216ZM99.2136 34.488H120.91V14.904H99.2136V34.488ZM148.513 64.056V55.896H140.065V1.752H152.257V51H173.953V1.752H186.241V55.896H177.697V64.056H148.513ZM207.099 64.056V14.904H202.395V23.064H190.203V10.008H198.651V1.752H227.835V10.008H236.379V23.064H224.091V14.904H219.387V64.056H207.099ZM274.561 64.056V14.904H269.857V23.064H257.665V10.008H266.113V1.752H295.297V10.008H303.841V23.064H291.553V14.904H286.849V64.056H274.561ZM307.803 64.056V1.752H319.995V26.424H324.699V18.168H336.987V26.424H341.691V1.752H353.979V64.056H341.691V39.384H319.995V64.056H307.803ZM369.295 64.056V55.896H360.847V10.008H369.295V1.752H398.479V10.008H407.023V23.064H394.735V14.904H373.039V26.424H390.031V39.384H373.039V51H394.735V42.744H407.023V55.896H398.479V64.056H369.295Z" fill="#2A2A2A"/>
    <path d="M89.0216 63.056V9.008H97.4696V0.751999H126.654V9.008H135.198V38.384H126.654V46.64H101.214V63.056H89.0216ZM101.214 33.488H122.91V13.904H101.214V33.488ZM150.513 63.056V54.896H142.065V0.751999H154.257V50H175.953V0.751999H188.241V54.896H179.697V63.056H150.513ZM209.099 63.056V13.904H204.395V22.064H192.203V9.008H200.651V0.751999H229.835V9.008H238.379V22.064H226.091V13.904H221.387V63.056H209.099ZM276.561 63.056V13.904H271.857V22.064H259.665V9.008H268.113V0.751999H297.297V9.008H305.841V22.064H293.553V13.904H288.849V63.056H276.561ZM309.803 63.056V0.751999H321.995V25.424H326.699V17.168H338.987V25.424H343.691V0.751999H355.979V63.056H343.691V38.384H321.995V63.056H309.803ZM371.295 63.056V54.896H362.847V9.008H371.295V0.751999H400.479V9.008H409.023V22.064H396.735V13.904H375.039V25.424H392.031V38.384H375.039V50H396.735V41.744H409.023V54.896H400.479V63.056H371.295Z" fill="#323165"/>
    <path d="M89.0216 63.056V9.008H97.4696V0.751999H126.654V9.008H135.198V38.384H126.654V46.64H101.214V63.056H89.0216ZM101.214 33.488H122.91V13.904H101.214V33.488ZM150.513 63.056V54.896H142.065V0.751999H154.257V50H175.953V0.751999H188.241V54.896H179.697V63.056H150.513ZM209.099 63.056V13.904H204.395V22.064H192.203V9.008H200.651V0.751999H229.835V9.008H238.379V22.064H226.091V13.904H221.387V63.056H209.099ZM276.561 63.056V13.904H271.857V22.064H259.665V9.008H268.113V0.751999H297.297V9.008H305.841V22.064H293.553V13.904H288.849V63.056H276.561ZM309.803 63.056V0.751999H321.995V25.424H326.699V17.168H338.987V25.424H343.691V0.751999H355.979V63.056H343.691V38.384H321.995V63.056H309.803ZM371.295 63.056V54.896H362.847V9.008H371.295V0.751999H400.479V9.008H409.023V22.064H396.735V13.904H375.039V25.424H392.031V38.384H375.039V50H396.735V41.744H409.023V54.896H400.479V63.056H371.295Z" fill="#323165"/>
    <path d="M89.0216 63.056V9.008H97.4696V0.751999H126.654V9.008H135.198V38.384H126.654V46.64H101.214V63.056H89.0216ZM101.214 33.488H122.91V13.904H101.214V33.488ZM150.513 63.056V54.896H142.065V0.751999H154.257V50H175.953V0.751999H188.241V54.896H179.697V63.056H150.513ZM209.099 63.056V13.904H204.395V22.064H192.203V9.008H200.651V0.751999H229.835V9.008H238.379V22.064H226.091V13.904H221.387V63.056H209.099ZM276.561 63.056V13.904H271.857V22.064H259.665V9.008H268.113V0.751999H297.297V9.008H305.841V22.064H293.553V13.904H288.849V63.056H276.561ZM309.803 63.056V0.751999H321.995V25.424H326.699V17.168H338.987V25.424H343.691V0.751999H355.979V63.056H343.691V38.384H321.995V63.056H309.803ZM371.295 63.056V54.896H362.847V9.008H371.295V0.751999H400.479V9.008H409.023V22.064H396.735V13.904H375.039V25.424H392.031V38.384H375.039V50H396.735V41.744H409.023V54.896H400.479V63.056H371.295Z" fill="#323165"/>
    <path d="M89.0216 63.056V9.008H97.4696V0.751999H126.654V9.008H135.198V38.384H126.654V46.64H101.214V63.056H89.0216ZM101.214 33.488H122.91V13.904H101.214V33.488ZM150.513 63.056V54.896H142.065V0.751999H154.257V50H175.953V0.751999H188.241V54.896H179.697V63.056H150.513ZM209.099 63.056V13.904H204.395V22.064H192.203V9.008H200.651V0.751999H229.835V9.008H238.379V22.064H226.091V13.904H221.387V63.056H209.099ZM276.561 63.056V13.904H271.857V22.064H259.665V9.008H268.113V0.751999H297.297V9.008H305.841V22.064H293.553V13.904H288.849V63.056H276.561ZM309.803 63.056V0.751999H321.995V25.424H326.699V17.168H338.987V25.424H343.691V0.751999H355.979V63.056H343.691V38.384H321.995V63.056H309.803ZM371.295 63.056V54.896H362.847V9.008H371.295V0.751999H400.479V9.008H409.023V22.064H396.735V13.904H375.039V25.424H392.031V38.384H375.039V50H396.735V41.744H409.023V54.896H400.479V63.056H371.295Z" fill="#323165"/>
    <path d="M91.0216 63.056V9.008H99.4696V0.751999H128.654V9.008H137.198V38.384H128.654V46.64H103.214V63.056H91.0216ZM103.214 33.488H124.91V13.904H103.214V33.488ZM152.513 63.056V54.896H144.065V0.751999H156.257V50H177.953V0.751999H190.241V54.896H181.697V63.056H152.513ZM211.099 63.056V13.904H206.395V22.064H194.203V9.008H202.651V0.751999H231.835V9.008H240.379V22.064H228.091V13.904H223.387V63.056H211.099ZM278.561 63.056V13.904H273.857V22.064H261.665V9.008H270.113V0.751999H299.297V9.008H307.841V22.064H295.553V13.904H290.849V63.056H278.561ZM311.803 63.056V0.751999H323.995V25.424H328.699V17.168H340.987V25.424H345.691V0.751999H357.979V63.056H345.691V38.384H323.995V63.056H311.803ZM373.295 63.056V54.896H364.847V9.008H373.295V0.751999H402.479V9.008H411.023V22.064H398.735V13.904H377.039V25.424H394.031V38.384H377.039V50H398.735V41.744H411.023V54.896H402.479V63.056H373.295Z" fill="#323165"/>
    <path d="M91.0216 63.056V9.008H99.4696V0.751999H128.654V9.008H137.198V38.384H128.654V46.64H103.214V63.056H91.0216ZM103.214 33.488H124.91V13.904H103.214V33.488ZM152.513 63.056V54.896H144.065V0.751999H156.257V50H177.953V0.751999H190.241V54.896H181.697V63.056H152.513ZM211.099 63.056V13.904H206.395V22.064H194.203V9.008H202.651V0.751999H231.835V9.008H240.379V22.064H228.091V13.904H223.387V63.056H211.099ZM278.561 63.056V13.904H273.857V22.064H261.665V9.008H270.113V0.751999H299.297V9.008H307.841V22.064H295.553V13.904H290.849V63.056H278.561ZM311.803 63.056V0.751999H323.995V25.424H328.699V17.168H340.987V25.424H345.691V0.751999H357.979V63.056H345.691V38.384H323.995V63.056H311.803ZM373.295 63.056V54.896H364.847V9.008H373.295V0.751999H402.479V9.008H411.023V22.064H398.735V13.904H377.039V25.424H394.031V38.384H377.039V50H398.735V41.744H411.023V54.896H402.479V63.056H373.295Z" fill="#323165"/>
    <path d="M91.0216 63.056V9.008H99.4696V0.751999H128.654V9.008H137.198V38.384H128.654V46.64H103.214V63.056H91.0216ZM103.214 33.488H124.91V13.904H103.214V33.488ZM152.513 63.056V54.896H144.065V0.751999H156.257V50H177.953V0.751999H190.241V54.896H181.697V63.056H152.513ZM211.099 63.056V13.904H206.395V22.064H194.203V9.008H202.651V0.751999H231.835V9.008H240.379V22.064H228.091V13.904H223.387V63.056H211.099ZM278.561 63.056V13.904H273.857V22.064H261.665V9.008H270.113V0.751999H299.297V9.008H307.841V22.064H295.553V13.904H290.849V63.056H278.561ZM311.803 63.056V0.751999H323.995V25.424H328.699V17.168H340.987V25.424H345.691V0.751999H357.979V63.056H345.691V38.384H323.995V63.056H311.803ZM373.295 63.056V54.896H364.847V9.008H373.295V0.751999H402.479V9.008H411.023V22.064H398.735V13.904H377.039V25.424H394.031V38.384H377.039V50H398.735V41.744H411.023V54.896H402.479V63.056H373.295Z" fill="#323165"/>
    <path d="M91.0216 63.056V9.008H99.4696V0.751999H128.654V9.008H137.198V38.384H128.654V46.64H103.214V63.056H91.0216ZM103.214 33.488H124.91V13.904H103.214V33.488ZM152.513 63.056V54.896H144.065V0.751999H156.257V50H177.953V0.751999H190.241V54.896H181.697V63.056H152.513ZM211.099 63.056V13.904H206.395V22.064H194.203V9.008H202.651V0.751999H231.835V9.008H240.379V22.064H228.091V13.904H223.387V63.056H211.099ZM278.561 63.056V13.904H273.857V22.064H261.665V9.008H270.113V0.751999H299.297V9.008H307.841V22.064H295.553V13.904H290.849V63.056H278.561ZM311.803 63.056V0.751999H323.995V25.424H328.699V17.168H340.987V25.424H345.691V0.751999H357.979V63.056H345.691V38.384H323.995V63.056H311.803ZM373.295 63.056V54.896H364.847V9.008H373.295V0.751999H402.479V9.008H411.023V22.064H398.735V13.904H377.039V25.424H394.031V38.384H377.039V50H398.735V41.744H411.023V54.896H402.479V63.056H373.295Z" fill="#323165"/>
    <path d="M91.0216 67.056V13.008H99.4696V4.752H128.654V13.008H137.198V42.384H128.654V50.64H103.214V67.056H91.0216ZM103.214 37.488H124.91V17.904H103.214V37.488ZM152.513 67.056V58.896H144.065V4.752H156.257V54H177.953V4.752H190.241V58.896H181.697V67.056H152.513ZM211.099 67.056V17.904H206.395V26.064H194.203V13.008H202.651V4.752H231.835V13.008H240.379V26.064H228.091V17.904H223.387V67.056H211.099ZM278.561 67.056V17.904H273.857V26.064H261.665V13.008H270.113V4.752H299.297V13.008H307.841V26.064H295.553V17.904H290.849V67.056H278.561ZM311.803 67.056V4.752H323.995V29.424H328.699V21.168H340.987V29.424H345.691V4.752H357.979V67.056H345.691V42.384H323.995V67.056H311.803ZM373.295 67.056V58.896H364.847V13.008H373.295V4.752H402.479V13.008H411.023V26.064H398.735V17.904H377.039V29.424H394.031V42.384H377.039V54H398.735V45.744H411.023V58.896H402.479V67.056H373.295Z" fill="#323165"/>
    <path d="M91.0216 67.056V13.008H99.4696V4.752H128.654V13.008H137.198V42.384H128.654V50.64H103.214V67.056H91.0216ZM103.214 37.488H124.91V17.904H103.214V37.488ZM152.513 67.056V58.896H144.065V4.752H156.257V54H177.953V4.752H190.241V58.896H181.697V67.056H152.513ZM211.099 67.056V17.904H206.395V26.064H194.203V13.008H202.651V4.752H231.835V13.008H240.379V26.064H228.091V17.904H223.387V67.056H211.099ZM278.561 67.056V17.904H273.857V26.064H261.665V13.008H270.113V4.752H299.297V13.008H307.841V26.064H295.553V17.904H290.849V67.056H278.561ZM311.803 67.056V4.752H323.995V29.424H328.699V21.168H340.987V29.424H345.691V4.752H357.979V67.056H345.691V42.384H323.995V67.056H311.803ZM373.295 67.056V58.896H364.847V13.008H373.295V4.752H402.479V13.008H411.023V26.064H398.735V17.904H377.039V29.424H394.031V42.384H377.039V54H398.735V45.744H411.023V58.896H402.479V67.056H373.295Z" fill="#323165"/>
    <path d="M91.0216 67.056V13.008H99.4696V4.752H128.654V13.008H137.198V42.384H128.654V50.64H103.214V67.056H91.0216ZM103.214 37.488H124.91V17.904H103.214V37.488ZM152.513 67.056V58.896H144.065V4.752H156.257V54H177.953V4.752H190.241V58.896H181.697V67.056H152.513ZM211.099 67.056V17.904H206.395V26.064H194.203V13.008H202.651V4.752H231.835V13.008H240.379V26.064H228.091V17.904H223.387V67.056H211.099ZM278.561 67.056V17.904H273.857V26.064H261.665V13.008H270.113V4.752H299.297V13.008H307.841V26.064H295.553V17.904H290.849V67.056H278.561ZM311.803 67.056V4.752H323.995V29.424H328.699V21.168H340.987V29.424H345.691V4.752H357.979V67.056H345.691V42.384H323.995V67.056H311.803ZM373.295 67.056V58.896H364.847V13.008H373.295V4.752H402.479V13.008H411.023V26.064H398.735V17.904H377.039V29.424H394.031V42.384H377.039V54H398.735V45.744H411.023V58.896H402.479V67.056H373.295Z" fill="#323165"/>
    <path d="M91.0216 67.056V13.008H99.4696V4.752H128.654V13.008H137.198V42.384H128.654V50.64H103.214V67.056H91.0216ZM103.214 37.488H124.91V17.904H103.214V37.488ZM152.513 67.056V58.896H144.065V4.752H156.257V54H177.953V4.752H190.241V58.896H181.697V67.056H152.513ZM211.099 67.056V17.904H206.395V26.064H194.203V13.008H202.651V4.752H231.835V13.008H240.379V26.064H228.091V17.904H223.387V67.056H211.099ZM278.561 67.056V17.904H273.857V26.064H261.665V13.008H270.113V4.752H299.297V13.008H307.841V26.064H295.553V17.904H290.849V67.056H278.561ZM311.803 67.056V4.752H323.995V29.424H328.699V21.168H340.987V29.424H345.691V4.752H357.979V67.056H345.691V42.384H323.995V67.056H311.803ZM373.295 67.056V58.896H364.847V13.008H373.295V4.752H402.479V13.008H411.023V26.064H398.735V17.904H377.039V29.424H394.031V42.384H377.039V54H398.735V45.744H411.023V58.896H402.479V67.056H373.295Z" fill="#323165"/>
    <path d="M87.0216 67.056V13.008H95.4696V4.752H124.654V13.008H133.198V42.384H124.654V50.64H99.2136V67.056H87.0216ZM99.2136 37.488H120.91V17.904H99.2136V37.488ZM148.513 67.056V58.896H140.065V4.752H152.257V54H173.953V4.752H186.241V58.896H177.697V67.056H148.513ZM207.099 67.056V17.904H202.395V26.064H190.203V13.008H198.651V4.752H227.835V13.008H236.379V26.064H224.091V17.904H219.387V67.056H207.099ZM274.561 67.056V17.904H269.857V26.064H257.665V13.008H266.113V4.752H295.297V13.008H303.841V26.064H291.553V17.904H286.849V67.056H274.561ZM307.803 67.056V4.752H319.995V29.424H324.699V21.168H336.987V29.424H341.691V4.752H353.979V67.056H341.691V42.384H319.995V67.056H307.803ZM369.295 67.056V58.896H360.847V13.008H369.295V4.752H398.479V13.008H407.023V26.064H394.735V17.904H373.039V29.424H390.031V42.384H373.039V54H394.735V45.744H407.023V58.896H398.479V67.056H369.295Z" fill="#323165"/>
    <path d="M87.0216 67.056V13.008H95.4696V4.752H124.654V13.008H133.198V42.384H124.654V50.64H99.2136V67.056H87.0216ZM99.2136 37.488H120.91V17.904H99.2136V37.488ZM148.513 67.056V58.896H140.065V4.752H152.257V54H173.953V4.752H186.241V58.896H177.697V67.056H148.513ZM207.099 67.056V17.904H202.395V26.064H190.203V13.008H198.651V4.752H227.835V13.008H236.379V26.064H224.091V17.904H219.387V67.056H207.099ZM274.561 67.056V17.904H269.857V26.064H257.665V13.008H266.113V4.752H295.297V13.008H303.841V26.064H291.553V17.904H286.849V67.056H274.561ZM307.803 67.056V4.752H319.995V29.424H324.699V21.168H336.987V29.424H341.691V4.752H353.979V67.056H341.691V42.384H319.995V67.056H307.803ZM369.295 67.056V58.896H360.847V13.008H369.295V4.752H398.479V13.008H407.023V26.064H394.735V17.904H373.039V29.424H390.031V42.384H373.039V54H394.735V45.744H407.023V58.896H398.479V67.056H369.295Z" fill="#323165"/>
    <path d="M87.0216 67.056V13.008H95.4696V4.752H124.654V13.008H133.198V42.384H124.654V50.64H99.2136V67.056H87.0216ZM99.2136 37.488H120.91V17.904H99.2136V37.488ZM148.513 67.056V58.896H140.065V4.752H152.257V54H173.953V4.752H186.241V58.896H177.697V67.056H148.513ZM207.099 67.056V17.904H202.395V26.064H190.203V13.008H198.651V4.752H227.835V13.008H236.379V26.064H224.091V17.904H219.387V67.056H207.099ZM274.561 67.056V17.904H269.857V26.064H257.665V13.008H266.113V4.752H295.297V13.008H303.841V26.064H291.553V17.904H286.849V67.056H274.561ZM307.803 67.056V4.752H319.995V29.424H324.699V21.168H336.987V29.424H341.691V4.752H353.979V67.056H341.691V42.384H319.995V67.056H307.803ZM369.295 67.056V58.896H360.847V13.008H369.295V4.752H398.479V13.008H407.023V26.064H394.735V17.904H373.039V29.424H390.031V42.384H373.039V54H394.735V45.744H407.023V58.896H398.479V67.056H369.295Z" fill="#323165"/>
    <path d="M87.0216 67.056V13.008H95.4696V4.752H124.654V13.008H133.198V42.384H124.654V50.64H99.2136V67.056H87.0216ZM99.2136 37.488H120.91V17.904H99.2136V37.488ZM148.513 67.056V58.896H140.065V4.752H152.257V54H173.953V4.752H186.241V58.896H177.697V67.056H148.513ZM207.099 67.056V17.904H202.395V26.064H190.203V13.008H198.651V4.752H227.835V13.008H236.379V26.064H224.091V17.904H219.387V67.056H207.099ZM274.561 67.056V17.904H269.857V26.064H257.665V13.008H266.113V4.752H295.297V13.008H303.841V26.064H291.553V17.904H286.849V67.056H274.561ZM307.803 67.056V4.752H319.995V29.424H324.699V21.168H336.987V29.424H341.691V4.752H353.979V67.056H341.691V42.384H319.995V67.056H307.803ZM369.295 67.056V58.896H360.847V13.008H369.295V4.752H398.479V13.008H407.023V26.064H394.735V17.904H373.039V29.424H390.031V42.384H373.039V54H394.735V45.744H407.023V58.896H398.479V67.056H369.295Z" fill="#323165"/>
    <path d="M89.0216 65.056V11.008H97.4696V2.752H126.654V11.008H135.198V40.384H126.654V48.64H101.214V65.056H89.0216ZM101.214 35.488H122.91V15.904H101.214V35.488ZM150.513 65.056V56.896H142.065V2.752H154.257V52H175.953V2.752H188.241V56.896H179.697V65.056H150.513ZM209.099 65.056V15.904H204.395V24.064H192.203V11.008H200.651V2.752H229.835V11.008H238.379V24.064H226.091V15.904H221.387V65.056H209.099ZM276.561 65.056V15.904H271.857V24.064H259.665V11.008H268.113V2.752H297.297V11.008H305.841V24.064H293.553V15.904H288.849V65.056H276.561ZM309.803 65.056V2.752H321.995V27.424H326.699V19.168H338.987V27.424H343.691V2.752H355.979V65.056H343.691V40.384H321.995V65.056H309.803ZM371.295 65.056V56.896H362.847V11.008H371.295V2.752H400.479V11.008H409.023V24.064H396.735V15.904H375.039V27.424H392.031V40.384H375.039V52H396.735V43.744H409.023V56.896H400.479V65.056H371.295Z" fill="white"/>
    <path d="M89.0216 65.056V11.008H97.4696V2.752H126.654V11.008H135.198V40.384H126.654V48.64H101.214V65.056H89.0216ZM101.214 35.488H122.91V15.904H101.214V35.488ZM150.513 65.056V56.896H142.065V2.752H154.257V52H175.953V2.752H188.241V56.896H179.697V65.056H150.513ZM209.099 65.056V15.904H204.395V24.064H192.203V11.008H200.651V2.752H229.835V11.008H238.379V24.064H226.091V15.904H221.387V65.056H209.099ZM276.561 65.056V15.904H271.857V24.064H259.665V11.008H268.113V2.752H297.297V11.008H305.841V24.064H293.553V15.904H288.849V65.056H276.561ZM309.803 65.056V2.752H321.995V27.424H326.699V19.168H338.987V27.424H343.691V2.752H355.979V65.056H343.691V40.384H321.995V65.056H309.803ZM371.295 65.056V56.896H362.847V11.008H371.295V2.752H400.479V11.008H409.023V24.064H396.735V15.904H375.039V27.424H392.031V40.384H375.039V52H396.735V43.744H409.023V56.896H400.479V65.056H371.295Z" fill="white"/>
    <mask id="mask0_0_1" style="mask-type:alpha" maskUnits="userSpaceOnUse" x="11" y="19" width="492" height="29">
        <rect x="11" y="19" width="492" height="29" fill="#977676"/>
    </mask>
    <g mask="url(#mask0_0_1)">
        <path d="M89.0216 65.056V11.008H97.4696V2.752H126.654V11.008H135.198V40.384H126.654V48.64H101.214V65.056H89.0216ZM101.214 35.488H122.91V15.904H101.214V35.488ZM150.513 65.056V56.896H142.065V2.752H154.257V52H175.953V2.752H188.241V56.896H179.697V65.056H150.513ZM209.099 65.056V15.904H204.395V24.064H192.203V11.008H200.651V2.752H229.835V11.008H238.379V24.064H226.091V15.904H221.387V65.056H209.099ZM276.561 65.056V15.904H271.857V24.064H259.665V11.008H268.113V2.752H297.297V11.008H305.841V24.064H293.553V15.904H288.849V65.056H276.561ZM309.803 65.056V2.752H321.995V27.424H326.699V19.168H338.987V27.424H343.691V2.752H355.979V65.056H343.691V40.384H321.995V65.056H309.803ZM371.295 65.056V56.896H362.847V11.008H371.295V2.752H400.479V11.008H409.023V24.064H396.735V15.904H375.039V27.424H392.031V40.384H375.039V52H396.735V43.744H409.023V56.896H400.479V65.056H371.295Z" fill="#E0E8EE"/>
    </g>
    <mask id="mask1_0_1" style="mask-type:alpha" maskUnits="userSpaceOnUse" x="11" y="43" width="492" height="29">
        <rect x="11" y="43" width="492" height="29" fill="#977676"/>
    </mask>
    <g mask="url(#mask1_0_1)">
        <path d="M89.0216 65.056V11.008H97.4696V2.752H126.654V11.008H135.198V40.384H126.654V48.64H101.214V65.056H89.0216ZM101.214 35.488H122.91V15.904H101.214V35.488ZM150.513 65.056V56.896H142.065V2.752H154.257V52H175.953V2.752H188.241V56.896H179.697V65.056H150.513ZM209.099 65.056V15.904H204.395V24.064H192.203V11.008H200.651V2.752H229.835V11.008H238.379V24.064H226.091V15.904H221.387V65.056H209.099ZM276.561 65.056V15.904H271.857V24.064H259.665V11.008H268.113V2.752H297.297V11.008H305.841V24.064H293.553V15.904H288.849V65.056H276.561ZM309.803 65.056V2.752H321.995V27.424H326.699V19.168H338.987V27.424H343.691V2.752H355.979V65.056H343.691V40.384H321.995V65.056H309.803ZM371.295 65.056V56.896H362.847V11.008H371.295V2.752H400.479V11.008H409.023V24.064H396.735V15.904H375.039V27.424H392.031V40.384H375.039V52H396.735V43.744H409.023V56.896H400.479V65.056H371.295Z" fill="#B2CEDF"/>
    </g>
    <path d="M14.3259 151.056V142.896H5.87788V129.744H18.0699V138H39.7659V126.384H14.3259V118.224H5.87788V97.008H14.3259V88.752H43.5099V97.008H52.0539V110.064H39.7659V101.904H18.0699V113.424H43.5099V121.488H52.0539V142.896H43.5099V151.056H14.3259ZM58.9216 151.056V88.752H71.1136V97.008H79.5616V105.168H88.1056V129.744H92.8096V88.752H105.098V151.056H92.8096V142.896H84.3616V134.64H75.8176V110.064H71.1136V151.056H58.9216ZM120.413 151.056V142.896H111.965V97.008H120.413V88.752H149.597V97.008H158.141V142.896H149.597V151.056H120.413ZM124.157 138H145.853V101.904H124.157V138ZM173.457 151.056V142.896H165.009V88.752H177.201V138H181.905V121.488H190.449V97.008H202.641V121.488H211.185V138H215.985V88.752H228.081V142.896H219.729V151.056H207.441V142.896H198.897V126.384H194.193V142.896H185.649V151.056H173.457ZM249.44 151.056V105.168H257.888V97.008H266.336V88.752H278.624V97.008H287.072V105.168H295.616V151.056H283.328V134.64H261.632V151.056H249.44ZM261.632 121.488H283.328V110.064H274.88V101.904H270.08V110.064H261.632V121.488ZM310.932 151.056V142.896H302.484V88.752H314.676V138H319.38V121.488H327.924V97.008H340.116V121.488H348.66V138H353.46V88.752H365.556V142.896H357.204V151.056H344.916V142.896H336.372V126.384H331.668V142.896H323.124V151.056H310.932ZM370.622 151.056V105.168H379.07V97.008H387.518V88.752H399.806V97.008H408.254V105.168H416.798V151.056H404.51V134.64H382.814V151.056H370.622ZM382.814 121.488H404.51V110.064H396.062V101.904H391.262V110.064H382.814V121.488ZM435.78 151.056V118.224H427.332V110.064H418.884V88.752H431.076V105.168H439.524V113.424H444.324V105.168H452.772V88.752H465.06V110.064H456.516V118.224H448.068V151.056H435.78ZM471.928 134.64V88.752H484.12V134.64H471.928ZM471.928 151.056V138H484.12V151.056H471.928Z" fill="#50506F"/>
    <path d="M14.3259 151.056V142.896H5.87788V129.744H18.0699V138H39.7659V126.384H14.3259V118.224H5.87788V97.008H14.3259V88.752H43.5099V97.008H52.0539V110.064H39.7659V101.904H18.0699V113.424H43.5099V121.488H52.0539V142.896H43.5099V151.056H14.3259ZM58.9216 151.056V88.752H71.1136V97.008H79.5616V105.168H88.1056V129.744H92.8096V88.752H105.098V151.056H92.8096V142.896H84.3616V134.64H75.8176V110.064H71.1136V151.056H58.9216ZM120.413 151.056V142.896H111.965V97.008H120.413V88.752H149.597V97.008H158.141V142.896H149.597V151.056H120.413ZM124.157 138H145.853V101.904H124.157V138ZM173.457 151.056V142.896H165.009V88.752H177.201V138H181.905V121.488H190.449V97.008H202.641V121.488H211.185V138H215.985V88.752H228.081V142.896H219.729V151.056H207.441V142.896H198.897V126.384H194.193V142.896H185.649V151.056H173.457ZM249.44 151.056V105.168H257.888V97.008H266.336V88.752H278.624V97.008H287.072V105.168H295.616V151.056H283.328V134.64H261.632V151.056H249.44ZM261.632 121.488H283.328V110.064H274.88V101.904H270.08V110.064H261.632V121.488ZM310.932 151.056V142.896H302.484V88.752H314.676V138H319.38V121.488H327.924V97.008H340.116V121.488H348.66V138H353.46V88.752H365.556V142.896H357.204V151.056H344.916V142.896H336.372V126.384H331.668V142.896H323.124V151.056H310.932ZM370.622 151.056V105.168H379.07V97.008H387.518V88.752H399.806V97.008H408.254V105.168H416.798V151.056H404.51V134.64H382.814V151.056H370.622ZM382.814 121.488H404.51V110.064H396.062V101.904H391.262V110.064H382.814V121.488ZM435.78 151.056V118.224H427.332V110.064H418.884V88.752H431.076V105.168H439.524V113.424H444.324V105.168H452.772V88.752H465.06V110.064H456.516V118.224H448.068V151.056H435.78ZM471.928 134.64V88.752H484.12V134.64H471.928ZM471.928 151.056V138H484.12V151.056H471.928Z" fill="#50506F"/>
    <path d="M18.3259 151.056V142.896H9.87788V129.744H22.0699V138H43.7659V126.384H18.3259V118.224H9.87788V97.008H18.3259V88.752H47.5099V97.008H56.0539V110.064H43.7659V101.904H22.0699V113.424H47.5099V121.488H56.0539V142.896H47.5099V151.056H18.3259ZM62.9216 151.056V88.752H75.1136V97.008H83.5616V105.168H92.1056V129.744H96.8096V88.752H109.098V151.056H96.8096V142.896H88.3616V134.64H79.8176V110.064H75.1136V151.056H62.9216ZM124.413 151.056V142.896H115.965V97.008H124.413V88.752H153.597V97.008H162.141V142.896H153.597V151.056H124.413ZM128.157 138H149.853V101.904H128.157V138ZM177.457 151.056V142.896H169.009V88.752H181.201V138H185.905V121.488H194.449V97.008H206.641V121.488H215.185V138H219.985V88.752H232.081V142.896H223.729V151.056H211.441V142.896H202.897V126.384H198.193V142.896H189.649V151.056H177.457ZM253.44 151.056V105.168H261.888V97.008H270.336V88.752H282.624V97.008H291.072V105.168H299.616V151.056H287.328V134.64H265.632V151.056H253.44ZM265.632 121.488H287.328V110.064H278.88V101.904H274.08V110.064H265.632V121.488ZM314.932 151.056V142.896H306.484V88.752H318.676V138H323.38V121.488H331.924V97.008H344.116V121.488H352.66V138H357.46V88.752H369.556V142.896H361.204V151.056H348.916V142.896H340.372V126.384H335.668V142.896H327.124V151.056H314.932ZM374.622 151.056V105.168H383.07V97.008H391.518V88.752H403.806V97.008H412.254V105.168H420.798V151.056H408.51V134.64H386.814V151.056H374.622ZM386.814 121.488H408.51V110.064H400.062V101.904H395.262V110.064H386.814V121.488ZM439.78 151.056V118.224H431.332V110.064H422.884V88.752H435.076V105.168H443.524V113.424H448.324V105.168H456.772V88.752H469.06V110.064H460.516V118.224H452.068V151.056H439.78ZM475.928 134.64V88.752H488.12V134.64H475.928ZM475.928 151.056V138H488.12V151.056H475.928Z" fill="#50506F"/>
    <path d="M18.3259 151.056V142.896H9.87788V129.744H22.0699V138H43.7659V126.384H18.3259V118.224H9.87788V97.008H18.3259V88.752H47.5099V97.008H56.0539V110.064H43.7659V101.904H22.0699V113.424H47.5099V121.488H56.0539V142.896H47.5099V151.056H18.3259ZM62.9216 151.056V88.752H75.1136V97.008H83.5616V105.168H92.1056V129.744H96.8096V88.752H109.098V151.056H96.8096V142.896H88.3616V134.64H79.8176V110.064H75.1136V151.056H62.9216ZM124.413 151.056V142.896H115.965V97.008H124.413V88.752H153.597V97.008H162.141V142.896H153.597V151.056H124.413ZM128.157 138H149.853V101.904H128.157V138ZM177.457 151.056V142.896H169.009V88.752H181.201V138H185.905V121.488H194.449V97.008H206.641V121.488H215.185V138H219.985V88.752H232.081V142.896H223.729V151.056H211.441V142.896H202.897V126.384H198.193V142.896H189.649V151.056H177.457ZM253.44 151.056V105.168H261.888V97.008H270.336V88.752H282.624V97.008H291.072V105.168H299.616V151.056H287.328V134.64H265.632V151.056H253.44ZM265.632 121.488H287.328V110.064H278.88V101.904H274.08V110.064H265.632V121.488ZM314.932 151.056V142.896H306.484V88.752H318.676V138H323.38V121.488H331.924V97.008H344.116V121.488H352.66V138H357.46V88.752H369.556V142.896H361.204V151.056H348.916V142.896H340.372V126.384H335.668V142.896H327.124V151.056H314.932ZM374.622 151.056V105.168H383.07V97.008H391.518V88.752H403.806V97.008H412.254V105.168H420.798V151.056H408.51V134.64H386.814V151.056H374.622ZM386.814 121.488H408.51V110.064H400.062V101.904H395.262V110.064H386.814V121.488ZM439.78 151.056V118.224H431.332V110.064H422.884V88.752H435.076V105.168H443.524V113.424H448.324V105.168H456.772V88.752H469.06V110.064H460.516V118.224H452.068V151.056H439.78ZM475.928 134.64V88.752H488.12V134.64H475.928ZM475.928 151.056V138H488.12V151.056H475.928Z" fill="#50506F"/>
    <path d="M18.3259 146.056V137.896H9.87788V124.744H22.0699V133H43.7659V121.384H18.3259V113.224H9.87788V92.008H18.3259V83.752H47.5099V92.008H56.0539V105.064H43.7659V96.904H22.0699V108.424H47.5099V116.488H56.0539V137.896H47.5099V146.056H18.3259ZM62.9216 146.056V83.752H75.1136V92.008H83.5616V100.168H92.1056V124.744H96.8096V83.752H109.098V146.056H96.8096V137.896H88.3616V129.64H79.8176V105.064H75.1136V146.056H62.9216ZM124.413 146.056V137.896H115.965V92.008H124.413V83.752H153.597V92.008H162.141V137.896H153.597V146.056H124.413ZM128.157 133H149.853V96.904H128.157V133ZM177.457 146.056V137.896H169.009V83.752H181.201V133H185.905V116.488H194.449V92.008H206.641V116.488H215.185V133H219.985V83.752H232.081V137.896H223.729V146.056H211.441V137.896H202.897V121.384H198.193V137.896H189.649V146.056H177.457ZM253.44 146.056V100.168H261.888V92.008H270.336V83.752H282.624V92.008H291.072V100.168H299.616V146.056H287.328V129.64H265.632V146.056H253.44ZM265.632 116.488H287.328V105.064H278.88V96.904H274.08V105.064H265.632V116.488ZM314.932 146.056V137.896H306.484V83.752H318.676V133H323.38V116.488H331.924V92.008H344.116V116.488H352.66V133H357.46V83.752H369.556V137.896H361.204V146.056H348.916V137.896H340.372V121.384H335.668V137.896H327.124V146.056H314.932ZM374.622 146.056V100.168H383.07V92.008H391.518V83.752H403.806V92.008H412.254V100.168H420.798V146.056H408.51V129.64H386.814V146.056H374.622ZM386.814 116.488H408.51V105.064H400.062V96.904H395.262V105.064H386.814V116.488ZM439.78 146.056V113.224H431.332V105.064H422.884V83.752H435.076V100.168H443.524V108.424H448.324V100.168H456.772V83.752H469.06V105.064H460.516V113.224H452.068V146.056H439.78ZM475.928 129.64V83.752H488.12V129.64H475.928ZM475.928 146.056V133H488.12V146.056H475.928Z" fill="#50506F"/>
    <path d="M18.3259 146.056V137.896H9.87788V124.744H22.0699V133H43.7659V121.384H18.3259V113.224H9.87788V92.008H18.3259V83.752H47.5099V92.008H56.0539V105.064H43.7659V96.904H22.0699V108.424H47.5099V116.488H56.0539V137.896H47.5099V146.056H18.3259ZM62.9216 146.056V83.752H75.1136V92.008H83.5616V100.168H92.1056V124.744H96.8096V83.752H109.098V146.056H96.8096V137.896H88.3616V129.64H79.8176V105.064H75.1136V146.056H62.9216ZM124.413 146.056V137.896H115.965V92.008H124.413V83.752H153.597V92.008H162.141V137.896H153.597V146.056H124.413ZM128.157 133H149.853V96.904H128.157V133ZM177.457 146.056V137.896H169.009V83.752H181.201V133H185.905V116.488H194.449V92.008H206.641V116.488H215.185V133H219.985V83.752H232.081V137.896H223.729V146.056H211.441V137.896H202.897V121.384H198.193V137.896H189.649V146.056H177.457ZM253.44 146.056V100.168H261.888V92.008H270.336V83.752H282.624V92.008H291.072V100.168H299.616V146.056H287.328V129.64H265.632V146.056H253.44ZM265.632 116.488H287.328V105.064H278.88V96.904H274.08V105.064H265.632V116.488ZM314.932 146.056V137.896H306.484V83.752H318.676V133H323.38V116.488H331.924V92.008H344.116V116.488H352.66V133H357.46V83.752H369.556V137.896H361.204V146.056H348.916V137.896H340.372V121.384H335.668V137.896H327.124V146.056H314.932ZM374.622 146.056V100.168H383.07V92.008H391.518V83.752H403.806V92.008H412.254V100.168H420.798V146.056H408.51V129.64H386.814V146.056H374.622ZM386.814 116.488H408.51V105.064H400.062V96.904H395.262V105.064H386.814V116.488ZM439.78 146.056V113.224H431.332V105.064H422.884V83.752H435.076V100.168H443.524V108.424H448.324V100.168H456.772V83.752H469.06V105.064H460.516V113.224H452.068V146.056H439.78ZM475.928 129.64V83.752H488.12V129.64H475.928ZM475.928 146.056V133H488.12V146.056H475.928Z" fill="#50506F"/>
    <path d="M18.3259 147.056V138.896H9.87788V125.744H22.0699V134H43.7659V122.384H18.3259V114.224H9.87788V93.008H18.3259V84.752H47.5099V93.008H56.0539V106.064H43.7659V97.904H22.0699V109.424H47.5099V117.488H56.0539V138.896H47.5099V147.056H18.3259ZM62.9216 147.056V84.752H75.1136V93.008H83.5616V101.168H92.1056V125.744H96.8096V84.752H109.098V147.056H96.8096V138.896H88.3616V130.64H79.8176V106.064H75.1136V147.056H62.9216ZM124.413 147.056V138.896H115.965V93.008H124.413V84.752H153.597V93.008H162.141V138.896H153.597V147.056H124.413ZM128.157 134H149.853V97.904H128.157V134ZM177.457 147.056V138.896H169.009V84.752H181.201V134H185.905V117.488H194.449V93.008H206.641V117.488H215.185V134H219.985V84.752H232.081V138.896H223.729V147.056H211.441V138.896H202.897V122.384H198.193V138.896H189.649V147.056H177.457ZM253.44 147.056V101.168H261.888V93.008H270.336V84.752H282.624V93.008H291.072V101.168H299.616V147.056H287.328V130.64H265.632V147.056H253.44ZM265.632 117.488H287.328V106.064H278.88V97.904H274.08V106.064H265.632V117.488ZM314.932 147.056V138.896H306.484V84.752H318.676V134H323.38V117.488H331.924V93.008H344.116V117.488H352.66V134H357.46V84.752H369.556V138.896H361.204V147.056H348.916V138.896H340.372V122.384H335.668V138.896H327.124V147.056H314.932ZM374.622 147.056V101.168H383.07V93.008H391.518V84.752H403.806V93.008H412.254V101.168H420.798V147.056H408.51V130.64H386.814V147.056H374.622ZM386.814 117.488H408.51V106.064H400.062V97.904H395.262V106.064H386.814V117.488ZM439.78 147.056V114.224H431.332V106.064H422.884V84.752H435.076V101.168H443.524V109.424H448.324V101.168H456.772V84.752H469.06V106.064H460.516V114.224H452.068V147.056H439.78ZM475.928 130.64V84.752H488.12V130.64H475.928ZM475.928 147.056V134H488.12V147.056H475.928Z" fill="#50506F"/>
    <path d="M18.3259 147.056V138.896H9.87788V125.744H22.0699V134H43.7659V122.384H18.3259V114.224H9.87788V93.008H18.3259V84.752H47.5099V93.008H56.0539V106.064H43.7659V97.904H22.0699V109.424H47.5099V117.488H56.0539V138.896H47.5099V147.056H18.3259ZM62.9216 147.056V84.752H75.1136V93.008H83.5616V101.168H92.1056V125.744H96.8096V84.752H109.098V147.056H96.8096V138.896H88.3616V130.64H79.8176V106.064H75.1136V147.056H62.9216ZM124.413 147.056V138.896H115.965V93.008H124.413V84.752H153.597V93.008H162.141V138.896H153.597V147.056H124.413ZM128.157 134H149.853V97.904H128.157V134ZM177.457 147.056V138.896H169.009V84.752H181.201V134H185.905V117.488H194.449V93.008H206.641V117.488H215.185V134H219.985V84.752H232.081V138.896H223.729V147.056H211.441V138.896H202.897V122.384H198.193V138.896H189.649V147.056H177.457ZM253.44 147.056V101.168H261.888V93.008H270.336V84.752H282.624V93.008H291.072V101.168H299.616V147.056H287.328V130.64H265.632V147.056H253.44ZM265.632 117.488H287.328V106.064H278.88V97.904H274.08V106.064H265.632V117.488ZM314.932 147.056V138.896H306.484V84.752H318.676V134H323.38V117.488H331.924V93.008H344.116V117.488H352.66V134H357.46V84.752H369.556V138.896H361.204V147.056H348.916V138.896H340.372V122.384H335.668V138.896H327.124V147.056H314.932ZM374.622 147.056V101.168H383.07V93.008H391.518V84.752H403.806V93.008H412.254V101.168H420.798V147.056H408.51V130.64H386.814V147.056H374.622ZM386.814 117.488H408.51V106.064H400.062V97.904H395.262V106.064H386.814V117.488ZM439.78 147.056V114.224H431.332V106.064H422.884V84.752H435.076V101.168H443.524V109.424H448.324V101.168H456.772V84.752H469.06V106.064H460.516V114.224H452.068V147.056H439.78ZM475.928 130.64V84.752H488.12V130.64H475.928ZM475.928 147.056V134H488.12V147.056H475.928Z" fill="#50506F"/>
    <path d="M16.3259 148.056V139.896H7.87788V126.744H20.0699V135H41.7659V123.384H16.3259V115.224H7.87788V94.008H16.3259V85.752H45.5099V94.008H54.0539V107.064H41.7659V98.904H20.0699V110.424H45.5099V118.488H54.0539V139.896H45.5099V148.056H16.3259ZM60.9216 148.056V85.752H73.1136V94.008H81.5616V102.168H90.1056V126.744H94.8096V85.752H107.098V148.056H94.8096V139.896H86.3616V131.64H77.8176V107.064H73.1136V148.056H60.9216ZM122.413 148.056V139.896H113.965V94.008H122.413V85.752H151.597V94.008H160.141V139.896H151.597V148.056H122.413ZM126.157 135H147.853V98.904H126.157V135ZM175.457 148.056V139.896H167.009V85.752H179.201V135H183.905V118.488H192.449V94.008H204.641V118.488H213.185V135H217.985V85.752H230.081V139.896H221.729V148.056H209.441V139.896H200.897V123.384H196.193V139.896H187.649V148.056H175.457ZM251.44 148.056V102.168H259.888V94.008H268.336V85.752H280.624V94.008H289.072V102.168H297.616V148.056H285.328V131.64H263.632V148.056H251.44ZM263.632 118.488H285.328V107.064H276.88V98.904H272.08V107.064H263.632V118.488ZM312.932 148.056V139.896H304.484V85.752H316.676V135H321.38V118.488H329.924V94.008H342.116V118.488H350.66V135H355.46V85.752H367.556V139.896H359.204V148.056H346.916V139.896H338.372V123.384H333.668V139.896H325.124V148.056H312.932ZM372.622 148.056V102.168H381.07V94.008H389.518V85.752H401.806V94.008H410.254V102.168H418.798V148.056H406.51V131.64H384.814V148.056H372.622ZM384.814 118.488H406.51V107.064H398.062V98.904H393.262V107.064H384.814V118.488ZM437.78 148.056V115.224H429.332V107.064H420.884V85.752H433.076V102.168H441.524V110.424H446.324V102.168H454.772V85.752H467.06V107.064H458.516V115.224H450.068V148.056H437.78ZM473.928 131.64V85.752H486.12V131.64H473.928ZM473.928 148.056V135H486.12V148.056H473.928Z" fill="white"/>
    <mask id="mask2_0_1" style="mask-type:alpha" maskUnits="userSpaceOnUse" x="0" y="123" width="492" height="29">
        <rect y="123" width="492" height="29" fill="#977676"/>
    </mask>
    <g mask="url(#mask2_0_1)">
        <path d="M16.3259 148.056V139.896H7.87788V126.744H20.0699V135H41.7659V123.384H16.3259V115.224H7.87788V94.008H16.3259V85.752H45.5099V94.008H54.0539V107.064H41.7659V98.904H20.0699V110.424H45.5099V118.488H54.0539V139.896H45.5099V148.056H16.3259ZM60.9216 148.056V85.752H73.1136V94.008H81.5616V102.168H90.1056V126.744H94.8096V85.752H107.098V148.056H94.8096V139.896H86.3616V131.64H77.8176V107.064H73.1136V148.056H60.9216ZM122.413 148.056V139.896H113.965V94.008H122.413V85.752H151.597V94.008H160.141V139.896H151.597V148.056H122.413ZM126.157 135H147.853V98.904H126.157V135ZM175.457 148.056V139.896H167.009V85.752H179.201V135H183.905V118.488H192.449V94.008H204.641V118.488H213.185V135H217.985V85.752H230.081V139.896H221.729V148.056H209.441V139.896H200.897V123.384H196.193V139.896H187.649V148.056H175.457ZM251.44 148.056V102.168H259.888V94.008H268.336V85.752H280.624V94.008H289.072V102.168H297.616V148.056H285.328V131.64H263.632V148.056H251.44ZM263.632 118.488H285.328V107.064H276.88V98.904H272.08V107.064H263.632V118.488ZM312.932 148.056V139.896H304.484V85.752H316.676V135H321.38V118.488H329.924V94.008H342.116V118.488H350.66V135H355.46V85.752H367.556V139.896H359.204V148.056H346.916V139.896H338.372V123.384H333.668V139.896H325.124V148.056H312.932ZM372.622 148.056V102.168H381.07V94.008H389.518V85.752H401.806V94.008H410.254V102.168H418.798V148.056H406.51V131.64H384.814V148.056H372.622ZM384.814 118.488H406.51V107.064H398.062V98.904H393.262V107.064H384.814V118.488ZM437.78 148.056V115.224H429.332V107.064H420.884V85.752H433.076V102.168H441.524V110.424H446.324V102.168H454.772V85.752H467.06V107.064H458.516V115.224H450.068V148.056H437.78ZM473.928 131.64V85.752H486.12V131.64H473.928ZM473.928 148.056V135H486.12V148.056H473.928Z" fill="#B2CEDF"/>
    </g>
    <mask id="mask3_0_1" style="mask-type:alpha" maskUnits="userSpaceOnUse" x="0" y="101" width="492" height="22">
        <rect y="101" width="492" height="22" fill="#977676"/>
    </mask>
    <g mask="url(#mask3_0_1)">
        <path d="M16.3259 148.056V139.896H7.87788V126.744H20.0699V135H41.7659V123.384H16.3259V115.224H7.87788V94.008H16.3259V85.752H45.5099V94.008H54.0539V107.064H41.7659V98.904H20.0699V110.424H45.5099V118.488H54.0539V139.896H45.5099V148.056H16.3259ZM60.9216 148.056V85.752H73.1136V94.008H81.5616V102.168H90.1056V126.744H94.8096V85.752H107.098V148.056H94.8096V139.896H86.3616V131.64H77.8176V107.064H73.1136V148.056H60.9216ZM122.413 148.056V139.896H113.965V94.008H122.413V85.752H151.597V94.008H160.141V139.896H151.597V148.056H122.413ZM126.157 135H147.853V98.904H126.157V135ZM175.457 148.056V139.896H167.009V85.752H179.201V135H183.905V118.488H192.449V94.008H204.641V118.488H213.185V135H217.985V85.752H230.081V139.896H221.729V148.056H209.441V139.896H200.897V123.384H196.193V139.896H187.649V148.056H175.457ZM251.44 148.056V102.168H259.888V94.008H268.336V85.752H280.624V94.008H289.072V102.168H297.616V148.056H285.328V131.64H263.632V148.056H251.44ZM263.632 118.488H285.328V107.064H276.88V98.904H272.08V107.064H263.632V118.488ZM312.932 148.056V139.896H304.484V85.752H316.676V135H321.38V118.488H329.924V94.008H342.116V118.488H350.66V135H355.46V85.752H367.556V139.896H359.204V148.056H346.916V139.896H338.372V123.384H333.668V139.896H325.124V148.056H312.932ZM372.622 148.056V102.168H381.07V94.008H389.518V85.752H401.806V94.008H410.254V102.168H418.798V148.056H406.51V131.64H384.814V148.056H372.622ZM384.814 118.488H406.51V107.064H398.062V98.904H393.262V107.064H384.814V118.488ZM437.78 148.056V115.224H429.332V107.064H420.884V85.752H433.076V102.168H441.524V110.424H446.324V102.168H454.772V85.752H467.06V107.064H458.516V115.224H450.068V148.056H437.78ZM473.928 131.64V85.752H486.12V131.64H473.928ZM473.928 148.056V135H486.12V148.056H473.928Z" fill="#E0E8EE"/>
    </g>
</svg>
